<svg width="290" height="47" xmlns="http://www.w3.org/2000/svg" xmlns:xlink="http://www.w3.org/1999/xlink" xml:space="preserve" overflow="hidden"><defs><clipPath id="clip0"><rect x="876" y="124" width="290" height="47"/></clipPath></defs><g clip-path="url(#clip0)" transform="translate(-876 -124)"><path d="M0 27.3201 8.46949 27.3201 8.46949 7.00727 8.56444 7.00727 15.8249 27.3201 22.6929 27.3201 29.9534 7.00727 30.0483 7.00727 30.0483 27.3201 38.5178 27.3201 38.5178 0.563367 25.2629 0.563367 19.3064 18.4012 19.2114 18.4012 13.2613 0.563367 0 0.563367 0 27.3201Z" fill="#FFFFFF" transform="matrix(1.01919 0 0 1 876.624 124)"/><path d="M417.183 262.358C417.183 258.383 419.405 254.414 425.215 254.414 431.026 254.414 433.242 258.383 433.242 262.358 433.242 266.333 431.02 270.29 425.215 270.29 419.411 270.29 417.183 266.308 417.183 262.339M408.182 262.339C408.182 270.093 414.328 276.265 425.215 276.265 436.103 276.265 442.243 270.081 442.243 262.339 442.243 254.598 436.097 248.413 425.215 248.413 414.334 248.413 408.182 254.591 408.182 262.339" fill="#FFFFFF" transform="matrix(1.01919 0 0 1 504.886 -124.42)"/><path d="M82.3719 27.3201 107.489 27.3201 107.489 21.3193 91.3731 21.3193 91.3731 0.563367 82.3719 0.563367 82.3719 27.3201Z" fill="#FFFFFF" transform="matrix(1.01919 0 0 1 876.624 124)"/><path d="M111.926 27.3201 139.943 27.3201 139.943 21.3193 120.921 21.3193 120.921 16.2237 137.86 16.2237 137.86 10.8369 120.921 10.8369 120.921 6.1464 139.455 6.1464 139.455 0.563367 111.926 0.563367 111.926 27.3201Z" fill="#FFFFFF" transform="matrix(1.01919 0 0 1 876.624 124)"/><path d="M144.95 27.3201 153.419 27.3201 153.419 10.6407 153.521 10.6407 165.516 27.3201 174.758 27.3201 174.758 0.563367 166.288 0.563367 166.288 17.0529 166.193 17.0529 154.192 0.563367 144.95 0.563367 144.95 27.3201Z" fill="#FFFFFF" transform="matrix(1.01919 0 0 1 876.624 124)"/><path d="M542.098 275.74 551.34 275.74 553.518 270.942 565.544 270.942 567.678 275.74 577.059 275.74 564.146 248.977 555.018 248.977ZM559.518 256.402 559.62 256.402 563.418 265.77 555.6 265.77Z" fill="#FFFFFF" transform="matrix(1.01919 0 0 1 504.886 -124.42)"/><path d="M579.692 275.74 588.934 275.74 591.118 270.942 603.145 270.942 605.278 275.74 614.665 275.74 601.739 248.977 592.618 248.977ZM597.118 256.402 597.207 256.402 601.005 265.77 593.194 265.77Z" fill="#FFFFFF" transform="matrix(1.01919 0 0 1 504.886 -124.42)"/><path d="M626.281 254.566 633.44 254.566C635.972 254.566 637.991 255.465 637.991 257.452 637.991 259.44 636.541 260.617 633.832 260.617L626.281 260.617ZM617.286 275.74 626.281 275.74 626.281 265.998 633.104 265.998C637.314 265.998 637.89 268.764 638.168 271.467 638.263 272.208 638.415 274.834 639.181 275.74L648.087 275.74C646.878 274.759 646.733 270.828 646.638 269.707 646.347 267.175 645.283 263.972 641.574 263.289L641.574 263.219C645.207 262.13 646.998 259.421 646.998 256.509 646.998 251.116 640.998 248.977 634.902 248.977L617.286 248.977Z" fill="#FFFFFF" transform="matrix(1.01919 0 0 1 504.886 -124.42)"/></g></svg>